<svg width="60" height="60" viewBox="0 0 10 10" fill="none" xmlns="http://www.w3.org/2000/svg">
<path d="M4.69533 9.12C3.87133 9.12 3.15733 8.928 2.55333 8.544C1.94933 8.156 1.48133 7.62 1.14933 6.936C0.817328 6.252 0.651328 5.462 0.651328 4.566C0.651328 3.674 0.815328 2.902 1.14333 2.25C1.47133 1.598 1.93733 1.094 2.54133 0.737999C3.14933 0.381999 3.86733 0.204 4.69533 0.204C5.36733 0.204 5.96533 0.338 6.48933 0.606C7.01733 0.87 7.44333 1.236 7.76733 1.704C8.09133 2.168 8.28533 2.698 8.34933 3.294H6.20733C6.15933 3.006 6.06733 2.756 5.93133 2.544C5.79933 2.328 5.62333 2.16 5.40333 2.04C5.18733 1.92 4.92933 1.86 4.62933 1.86C4.28133 1.86 3.97733 1.948 3.71733 2.124C3.45733 2.296 3.25533 2.584 3.11133 2.988C2.97133 3.388 2.90133 3.924 2.90133 4.596C2.90133 5.62 3.05733 6.354 3.36933 6.798C3.68533 7.242 4.10533 7.464 4.62933 7.464C4.92933 7.464 5.18733 7.392 5.40333 7.248C5.62333 7.104 5.79933 6.912 5.93133 6.672C6.06733 6.428 6.15933 6.164 6.20733 5.88H8.34933C8.29333 6.308 8.19133 6.718 8.04333 7.11C7.89933 7.498 7.68933 7.844 7.41333 8.148C7.13733 8.452 6.77733 8.69 6.33333 8.862C5.89333 9.034 5.34733 9.12 4.69533 9.12Z" fill="oklch(0.552 0.016 285.938)" />
</svg>
