<svg width="9" height="10" viewBox="0 0 9 10" fill="none" xmlns="http://www.w3.org/2000/svg">
<path d="M4.596 9.144C3.756 9.144 3.032 8.964 2.424 8.604C1.824 8.236 1.36 7.728 1.032 7.08C0.712 6.424 0.552 5.668 0.552 4.812C0.552 3.956 0.712 3.2 1.032 2.544C1.36 1.888 1.824 1.376 2.424 1.008C3.032 0.64 3.756 0.456 4.596 0.456C5.612 0.456 6.444 0.708 7.092 1.212C7.74 1.716 8.144 2.428 8.304 3.348H6.54C6.436 2.9 6.216 2.552 5.88 2.304C5.552 2.048 5.12 1.92 4.584 1.92C4.088 1.92 3.66 2.04 3.3 2.28C2.948 2.512 2.676 2.844 2.484 3.276C2.292 3.7 2.196 4.212 2.196 4.812C2.196 5.404 2.292 5.916 2.484 6.348C2.676 6.78 2.948 7.112 3.3 7.344C3.66 7.576 4.088 7.692 4.584 7.692C5.12 7.692 5.552 7.576 5.88 7.344C6.208 7.104 6.424 6.772 6.528 6.348H8.304C8.144 7.22 7.74 7.904 7.092 8.4C6.444 8.896 5.612 9.144 4.596 9.144Z" fill="white" fill-opacity="0.501961"/>
</svg>
